# 3ds Max Wavefront OBJ Exporter v0.94b - (c)2007 guruware
# File Created: 05.06.2009 15:14:33

#
# object Bochka_low
#

v  32.6875 0.1773 0.0000
v  30.7269 11.2965 0.0000
v  30.7269 11.2965 102.3085
v  32.6875 0.1773 102.3085
v  25.0816 21.0745 0.0000
v  25.0816 21.0745 102.3085
v  16.4324 28.3320 0.0000
v  16.4324 28.3320 102.3085
v  5.8226 32.1936 0.0000
v  5.8226 32.1936 102.3085
v  -5.4680 32.1936 0.0000
v  -5.4680 32.1936 102.3085
v  -16.0778 28.3320 0.0000
v  -16.0778 28.3320 102.3085
v  -24.7270 21.0745 0.0000
v  -24.7270 21.0745 102.3085
v  -30.3723 11.2965 0.0000
v  -30.3723 11.2965 102.3085
v  -32.3329 0.1773 0.0000
v  -32.3329 0.1773 102.3085
v  -30.3723 -10.9418 0.0000
v  -30.3723 -10.9418 102.3085
v  -24.7270 -20.7198 0.0000
v  -24.7270 -20.7198 102.3085
v  -16.0778 -27.9774 0.0000
v  -16.0778 -27.9774 102.3085
v  -5.4680 -31.8390 0.0000
v  -5.4680 -31.8390 102.3085
v  5.8226 -31.8390 0.0000
v  5.8226 -31.8390 102.3085
v  16.4324 -27.9774 0.0000
v  16.4324 -27.9774 102.3085
v  25.0816 -20.7199 0.0000
v  25.0816 -20.7199 102.3085
v  30.7269 -10.9419 0.0000
v  30.7269 -10.9419 102.3085
v  0.1773 0.1773 1.1000
v  0.1773 0.1773 101.2085
# 38 vertices

vn 1.0000 -0.0000 0.0000
vn 0.9397 0.3420 0.0000
vn 0.7660 0.6428 0.0000
vn 0.5000 0.8660 0.0000
vn 0.1736 0.9848 0.0000
vn -0.1736 0.9848 0.0000
vn -0.5000 0.8660 0.0000
vn -0.7660 0.6428 0.0000
vn -0.9397 0.3420 0.0000
vn -1.0000 0.0000 0.0000
vn -0.9397 -0.3420 0.0000
vn -0.7660 -0.6428 0.0000
vn -0.5000 -0.8660 0.0000
vn -0.1736 -0.9848 0.0000
vn 0.1736 -0.9848 0.0000
vn 0.5000 -0.8660 0.0000
vn 0.7660 -0.6428 0.0000
vn 0.9397 -0.3420 0.0000
vn -0.0338 -0.0060 -0.9994
vn -0.0338 0.0060 -0.9994
vn -0.0297 0.0172 -0.9994
vn -0.0221 0.0263 -0.9994
vn -0.0117 0.0323 -0.9994
vn 0.0000 0.0343 -0.9994
vn 0.0117 0.0323 -0.9994
vn 0.0221 0.0263 -0.9994
vn 0.0297 0.0172 -0.9994
vn 0.0338 0.0060 -0.9994
vn 0.0338 -0.0060 -0.9994
vn 0.0297 -0.0172 -0.9994
vn 0.0221 -0.0263 -0.9994
vn 0.0117 -0.0323 -0.9994
vn 0.0000 -0.0343 -0.9994
vn -0.0117 -0.0323 -0.9994
vn -0.0221 -0.0263 -0.9994
vn -0.0297 -0.0172 -0.9994
vn -0.0338 -0.0060 0.9994
vn -0.0297 -0.0172 0.9994
vn -0.0221 -0.0263 0.9994
vn -0.0117 -0.0323 0.9994
vn 0.0000 -0.0343 0.9994
vn 0.0117 -0.0323 0.9994
vn 0.0221 -0.0263 0.9994
vn 0.0297 -0.0172 0.9994
vn 0.0338 -0.0060 0.9994
vn 0.0338 0.0060 0.9994
vn 0.0297 0.0172 0.9994
vn 0.0221 0.0263 0.9994
vn 0.0117 0.0323 0.9994
vn 0.0000 0.0343 0.9994
vn -0.0117 0.0323 0.9994
vn -0.0221 0.0263 0.9994
vn -0.0297 0.0172 0.9994
vn -0.0338 0.0060 0.9994
# 54 vertex normals

vt 0.0283 0.4649 0.5000
vt 0.0815 0.4649 0.5009
vt 0.0815 0.9468 0.5009
vt 0.0283 0.9468 0.5000
vt 0.1343 0.4649 0.5032
vt 0.1343 0.9468 0.5032
vt 0.1865 0.4649 0.5058
vt 0.1865 0.9468 0.5058
vt 0.2383 0.4649 0.5075
vt 0.2383 0.9468 0.5075
vt 0.2900 0.4649 0.5075
vt 0.2900 0.9468 0.5075
vt 0.3418 0.4649 0.5058
vt 0.3418 0.9468 0.5058
vt 0.3940 0.4649 0.5032
vt 0.3940 0.9468 0.5032
vt 0.4468 0.4649 0.5009
vt 0.4468 0.9468 0.5009
vt 0.5000 0.4649 0.5000
vt 0.5000 0.9468 0.5000
vt 0.5532 0.4649 0.5009
vt 0.5532 0.9468 0.5009
vt 0.6060 0.4649 0.5032
vt 0.6060 0.9468 0.5032
vt 0.6582 0.4649 0.5058
vt 0.6582 0.9468 0.5058
vt 0.7100 0.4649 0.5075
vt 0.7100 0.9468 0.5075
vt 0.7617 0.4649 0.5075
vt 0.7617 0.9468 0.5075
vt 0.8135 0.4649 0.5058
vt 0.8135 0.9468 0.5058
vt 0.8657 0.4649 0.5032
vt 0.8657 0.9468 0.5032
vt 0.9185 0.4649 0.5009
vt 0.9185 0.9468 0.5009
vt 0.9717 0.4649 0.5000
vt 0.9717 0.9468 0.5000
vt 0.9449 0.3063 0.0000
vt 0.9578 0.2317 0.0000
vt 0.7430 0.2317 0.0000
vt 0.9449 0.1571 0.0000
vt 0.9076 0.0915 0.0000
vt 0.8504 0.0428 0.0000
vt 0.7803 0.0168 0.0000
vt 0.7057 0.0168 0.0000
vt 0.6355 0.0428 0.0000
vt 0.5784 0.0915 0.0000
vt 0.5411 0.1571 0.0000
vt 0.5281 0.2317 0.0000
vt 0.5411 0.3063 0.0000
vt 0.5784 0.3720 0.0000
vt 0.6355 0.4207 0.0000
vt 0.7057 0.4466 0.0000
vt 0.7803 0.4466 0.0000
vt 0.8504 0.4207 0.0000
vt 0.9076 0.3720 0.0000
vt 0.4861 0.2295 0.0000
vt 0.4729 0.3057 0.0000
vt 0.2666 0.2295 0.0000
vt 0.4348 0.3728 0.0000
vt 0.3764 0.4225 0.0000
vt 0.3047 0.4490 0.0000
vt 0.2285 0.4490 0.0000
vt 0.1568 0.4225 0.0000
vt 0.0984 0.3728 0.0000
vt 0.0603 0.3057 0.0000
vt 0.0471 0.2295 0.0000
vt 0.0603 0.1532 0.0000
vt 0.0984 0.0862 0.0000
vt 0.1568 0.0364 0.0000
vt 0.2285 0.0099 0.0000
vt 0.3047 0.0099 0.0000
vt 0.3764 0.0364 0.0000
vt 0.4348 0.0862 0.0000
vt 0.4729 0.1532 0.0000
# 76 texture coords

g Bochka_low
s 8
f 1/1/1 2/2/2 3/3/2 4/4/1 
f 2/2/2 5/5/3 6/6/3 3/3/2 
f 5/5/3 7/7/4 8/8/4 6/6/3 
f 7/7/4 9/9/5 10/10/5 8/8/4 
f 9/9/5 11/11/6 12/12/6 10/10/5 
f 11/11/6 13/13/7 14/14/7 12/12/6 
f 13/13/7 15/15/8 16/16/8 14/14/7 
f 15/15/8 17/17/9 18/18/9 16/16/8 
f 17/17/9 19/19/10 20/20/10 18/18/9 
f 19/19/10 21/21/11 22/22/11 20/20/10 
f 21/21/11 23/23/12 24/24/12 22/22/11 
f 23/23/12 25/25/13 26/26/13 24/24/12 
f 25/25/13 27/27/14 28/28/14 26/26/13 
f 27/27/14 29/29/15 30/30/15 28/28/14 
f 29/29/15 31/31/16 32/32/16 30/30/15 
f 31/31/16 33/33/17 34/34/17 32/32/16 
f 33/33/17 35/35/18 36/36/18 34/34/17 
f 35/35/18 1/37/1 4/38/1 36/36/18 
s off
f 2/39/19 1/40/19 37/41/19 
f 1/40/20 35/42/20 37/41/20 
f 35/42/21 33/43/21 37/41/21 
f 33/43/22 31/44/22 37/41/22 
f 31/44/23 29/45/23 37/41/23 
f 29/45/24 27/46/24 37/41/24 
f 27/46/25 25/47/25 37/41/25 
f 25/47/26 23/48/26 37/41/26 
f 23/48/27 21/49/27 37/41/27 
f 21/49/28 19/50/28 37/41/28 
f 19/50/29 17/51/29 37/41/29 
f 17/51/30 15/52/30 37/41/30 
f 15/52/31 13/53/31 37/41/31 
f 13/53/32 11/54/32 37/41/32 
f 11/54/33 9/55/33 37/41/33 
f 9/55/34 7/56/34 37/41/34 
f 7/56/35 5/57/35 37/41/35 
f 5/57/36 2/39/36 37/41/36 
f 4/58/37 3/59/37 38/60/37 
f 3/59/38 6/61/38 38/60/38 
f 6/61/39 8/62/39 38/60/39 
f 8/62/40 10/63/40 38/60/40 
f 10/63/41 12/64/41 38/60/41 
f 12/64/42 14/65/42 38/60/42 
f 14/65/43 16/66/43 38/60/43 
f 16/66/44 18/67/44 38/60/44 
f 18/67/45 20/68/45 38/60/45 
f 20/68/46 22/69/46 38/60/46 
f 22/69/47 24/70/47 38/60/47 
f 24/70/48 26/71/48 38/60/48 
f 26/71/49 28/72/49 38/60/49 
f 28/72/50 30/73/50 38/60/50 
f 30/73/51 32/74/51 38/60/51 
f 32/74/52 34/75/52 38/60/52 
f 34/75/53 36/76/53 38/60/53 
f 36/76/54 4/58/54 38/60/54 
# 18 polygons - 36 triangles

#
# object Bochka_low01
#

v  -65.0624 29.3217 31.5819
v  -66.9048 28.6512 42.7011
v  -31.9132 -67.4874 42.7011
v  -30.0708 -66.8168 31.5819
v  -72.2097 26.7203 52.4791
v  -37.2181 -69.4182 52.4791
v  -80.3372 23.7621 59.7366
v  -45.3456 -72.3764 59.7366
v  -90.3071 20.1334 63.5982
v  -55.3156 -76.0052 63.5982
v  -100.9169 16.2718 63.5982
v  -65.9253 -79.8668 63.5982
v  -110.8868 12.6430 59.7366
v  -75.8952 -83.4956 59.7366
v  -119.0144 9.6848 52.4791
v  -84.0228 -86.4537 52.4791
v  -124.3193 7.7540 42.7011
v  -89.3277 -88.3846 42.7011
v  -126.1616 7.0834 31.5819
v  -91.1700 -89.0551 31.5819
v  -124.3193 7.7540 20.4628
v  -89.3277 -88.3846 20.4628
v  -119.0144 9.6848 10.6848
v  -84.0228 -86.4537 10.6848
v  -110.8868 12.6430 3.4273
v  -75.8953 -83.4956 3.4273
v  -100.9169 16.2718 -0.4344
v  -65.9253 -79.8668 -0.4344
v  -90.3072 20.1334 -0.4344
v  -55.3156 -76.0052 -0.4344
v  -80.3372 23.7621 3.4273
v  -45.3457 -72.3764 3.4273
v  -72.2097 26.7203 10.6848
v  -37.2181 -69.4182 10.6848
v  -66.9048 28.6512 20.4628
v  -31.9132 -67.4874 20.4628
v  -95.2358 17.1689 31.5819
v  -60.9967 -76.9023 31.5819
# 38 vertices

vn 0.9397 0.3420 -0.0000
vn 0.8830 0.3214 0.3420
vn 0.7198 0.2620 0.6428
vn 0.4698 0.1710 0.8660
vn 0.1632 0.0594 0.9848
vn -0.1632 -0.0594 0.9848
vn -0.4698 -0.1710 0.8660
vn -0.7198 -0.2620 0.6428
vn -0.8830 -0.3214 0.3420
vn -0.9397 -0.3420 0.0000
vn -0.8830 -0.3214 -0.3420
vn -0.7198 -0.2620 -0.6428
vn -0.4698 -0.1710 -0.8660
vn -0.1632 -0.0594 -0.9848
vn 0.1632 0.0594 -0.9848
vn 0.4698 0.1710 -0.8660
vn 0.7198 0.2620 -0.6428
vn 0.8830 0.3214 -0.3420
vn -0.3736 0.9276 -0.0060
vn -0.3736 0.9276 0.0060
vn -0.3698 0.9290 0.0172
vn -0.3626 0.9316 0.0263
vn -0.3529 0.9351 0.0323
vn -0.3418 0.9391 0.0343
vn -0.3308 0.9432 0.0323
vn -0.3211 0.9467 0.0263
vn -0.3139 0.9493 0.0172
vn -0.3100 0.9507 0.0060
vn -0.3100 0.9507 -0.0060
vn -0.3139 0.9493 -0.0172
vn -0.3211 0.9467 -0.0263
vn -0.3308 0.9432 -0.0323
vn -0.3418 0.9391 -0.0343
vn -0.3529 0.9351 -0.0323
vn -0.3626 0.9316 -0.0263
vn -0.3698 0.9290 -0.0172
vn 0.3100 -0.9507 -0.0060
vn 0.3139 -0.9493 -0.0172
vn 0.3211 -0.9467 -0.0263
vn 0.3308 -0.9432 -0.0323
vn 0.3418 -0.9391 -0.0343
vn 0.3529 -0.9351 -0.0323
vn 0.3626 -0.9316 -0.0263
vn 0.3698 -0.9290 -0.0172
vn 0.3736 -0.9276 -0.0060
vn 0.3736 -0.9276 0.0060
vn 0.3698 -0.9290 0.0172
vn 0.3626 -0.9316 0.0263
vn 0.3529 -0.9351 0.0323
vn 0.3418 -0.9391 0.0343
vn 0.3308 -0.9432 0.0323
vn 0.3211 -0.9467 0.0263
vn 0.3139 -0.9493 0.0172
vn 0.3100 -0.9507 0.0060
# 54 vertex normals

vt 0.0283 0.4649 0.5000
vt 0.0815 0.4649 0.5009
vt 0.0815 0.9468 0.5009
vt 0.0283 0.9468 0.5000
vt 0.1343 0.4649 0.5032
vt 0.1343 0.9468 0.5032
vt 0.1865 0.4649 0.5058
vt 0.1865 0.9468 0.5058
vt 0.2383 0.4649 0.5075
vt 0.2383 0.9468 0.5075
vt 0.2900 0.4649 0.5075
vt 0.2900 0.9468 0.5075
vt 0.3418 0.4649 0.5058
vt 0.3418 0.9468 0.5058
vt 0.3940 0.4649 0.5032
vt 0.3940 0.9468 0.5032
vt 0.4468 0.4649 0.5009
vt 0.4468 0.9468 0.5009
vt 0.5000 0.4649 0.5000
vt 0.5000 0.9468 0.5000
vt 0.5532 0.4649 0.5009
vt 0.5532 0.9468 0.5009
vt 0.6060 0.4649 0.5032
vt 0.6060 0.9468 0.5032
vt 0.6582 0.4649 0.5058
vt 0.6582 0.9468 0.5058
vt 0.7100 0.4649 0.5075
vt 0.7100 0.9468 0.5075
vt 0.7617 0.4649 0.5075
vt 0.7617 0.9468 0.5075
vt 0.8135 0.4649 0.5058
vt 0.8135 0.9468 0.5058
vt 0.8657 0.4649 0.5032
vt 0.8657 0.9468 0.5032
vt 0.9185 0.4649 0.5009
vt 0.9185 0.9468 0.5009
vt 0.9717 0.4649 0.5000
vt 0.9717 0.9468 0.5000
vt 0.9449 0.3063 0.0000
vt 0.9578 0.2317 0.0000
vt 0.7430 0.2317 0.0000
vt 0.9449 0.1571 0.0000
vt 0.9076 0.0915 0.0000
vt 0.8504 0.0428 0.0000
vt 0.7803 0.0168 0.0000
vt 0.7057 0.0168 0.0000
vt 0.6355 0.0428 0.0000
vt 0.5784 0.0915 0.0000
vt 0.5411 0.1571 0.0000
vt 0.5281 0.2317 0.0000
vt 0.5411 0.3063 0.0000
vt 0.5784 0.3720 0.0000
vt 0.6355 0.4207 0.0000
vt 0.7057 0.4466 0.0000
vt 0.7803 0.4466 0.0000
vt 0.8504 0.4207 0.0000
vt 0.9076 0.3720 0.0000
vt 0.4861 0.2295 0.0000
vt 0.4729 0.3057 0.0000
vt 0.2666 0.2295 0.0000
vt 0.4348 0.3728 0.0000
vt 0.3764 0.4225 0.0000
vt 0.3047 0.4490 0.0000
vt 0.2285 0.4490 0.0000
vt 0.1568 0.4225 0.0000
vt 0.0984 0.3728 0.0000
vt 0.0603 0.3057 0.0000
vt 0.0471 0.2295 0.0000
vt 0.0603 0.1532 0.0000
vt 0.0984 0.0862 0.0000
vt 0.1568 0.0364 0.0000
vt 0.2285 0.0099 0.0000
vt 0.3047 0.0099 0.0000
vt 0.3764 0.0364 0.0000
vt 0.4348 0.0862 0.0000
vt 0.4729 0.1532 0.0000
# 76 texture coords

g Bochka_low01
s 8
f 39/77/55 40/78/56 41/79/56 42/80/55 
f 40/78/56 43/81/57 44/82/57 41/79/56 
f 43/81/57 45/83/58 46/84/58 44/82/57 
f 45/83/58 47/85/59 48/86/59 46/84/58 
f 47/85/59 49/87/60 50/88/60 48/86/59 
f 49/87/60 51/89/61 52/90/61 50/88/60 
f 51/89/61 53/91/62 54/92/62 52/90/61 
f 53/91/62 55/93/63 56/94/63 54/92/62 
f 55/93/63 57/95/64 58/96/64 56/94/63 
f 57/95/64 59/97/65 60/98/65 58/96/64 
f 59/97/65 61/99/66 62/100/66 60/98/65 
f 61/99/66 63/101/67 64/102/67 62/100/66 
f 63/101/67 65/103/68 66/104/68 64/102/67 
f 65/103/68 67/105/69 68/106/69 66/104/68 
f 67/105/69 69/107/70 70/108/70 68/106/69 
f 69/107/70 71/109/71 72/110/71 70/108/70 
f 71/109/71 73/111/72 74/112/72 72/110/71 
f 73/111/72 39/113/55 42/114/55 74/112/72 
s off
f 40/115/73 39/116/73 75/117/73 
f 39/116/74 73/118/74 75/117/74 
f 73/118/75 71/119/75 75/117/75 
f 71/119/76 69/120/76 75/117/76 
f 69/120/77 67/121/77 75/117/77 
f 67/121/78 65/122/78 75/117/78 
f 65/122/79 63/123/79 75/117/79 
f 63/123/80 61/124/80 75/117/80 
f 61/124/81 59/125/81 75/117/81 
f 59/125/82 57/126/82 75/117/82 
f 57/126/83 55/127/83 75/117/83 
f 55/127/84 53/128/84 75/117/84 
f 53/128/85 51/129/85 75/117/85 
f 51/129/86 49/130/86 75/117/86 
f 49/130/87 47/131/87 75/117/87 
f 47/131/88 45/132/88 75/117/88 
f 45/132/89 43/133/89 75/117/89 
f 43/133/90 40/115/90 75/117/90 
f 42/134/91 41/135/91 76/136/91 
f 41/135/92 44/137/92 76/136/92 
f 44/137/93 46/138/93 76/136/93 
f 46/138/94 48/139/94 76/136/94 
f 48/139/95 50/140/95 76/136/95 
f 50/140/96 52/141/96 76/136/96 
f 52/141/97 54/142/97 76/136/97 
f 54/142/98 56/143/98 76/136/98 
f 56/143/99 58/144/99 76/136/99 
f 58/144/100 60/145/100 76/136/100 
f 60/145/101 62/146/101 76/136/101 
f 62/146/102 64/147/102 76/136/102 
f 64/147/103 66/148/103 76/136/103 
f 66/148/104 68/149/104 76/136/104 
f 68/149/105 70/150/105 76/136/105 
f 70/150/106 72/151/106 76/136/106 
f 72/151/107 74/152/107 76/136/107 
f 74/152/108 42/134/108 76/136/108 
# 18 polygons - 36 triangles

#
# object Bochka_low02
#

v  70.7505 81.8219 47.8370
v  71.7499 85.5520 37.2273
v  -27.0725 112.0314 37.2273
v  -28.0720 108.3013 47.8371
v  71.7499 85.5520 25.9366
v  -27.0725 112.0314 25.9366
v  70.7505 81.8219 15.3268
v  -28.0720 108.3013 15.3268
v  68.8721 74.8117 6.6777
v  -29.9503 101.2911 6.6777
v  66.3414 65.3669 1.0323
v  -32.4811 91.8463 1.0323
v  63.4635 54.6266 -0.9283
v  -35.3589 81.1060 -0.9283
v  60.5857 43.8863 1.0323
v  -38.2368 70.3657 1.0323
v  58.0549 34.4415 6.6777
v  -40.7675 60.9209 6.6777
v  56.1766 27.4313 15.3268
v  -42.6459 53.9107 15.3268
v  55.1771 23.7012 25.9366
v  -43.6453 50.1806 25.9366
v  55.1771 23.7012 37.2273
v  -43.6453 50.1806 37.2273
v  56.1765 27.4313 47.8370
v  -42.6459 53.9107 47.8370
v  58.0549 34.4415 56.4862
v  -40.7675 60.9209 56.4862
v  60.5857 43.8863 62.1315
v  -38.2368 70.3657 62.1315
v  63.4635 54.6266 64.0921
v  -35.3589 81.1060 64.0921
v  66.3413 65.3669 62.1316
v  -32.4811 91.8462 62.1316
v  68.8721 74.8117 56.4862
v  -29.9504 101.2911 56.4862
v  62.4010 54.9113 31.5819
v  -34.2964 80.8213 31.5819
# 38 vertices

vn 0.2241 0.8365 0.5000
vn 0.2549 0.9513 0.1736
vn 0.2549 0.9513 -0.1736
vn 0.2241 0.8365 -0.5000
vn 0.1664 0.6209 -0.7660
vn 0.0885 0.3304 -0.9397
vn -0.0000 0.0000 -1.0000
vn -0.0885 -0.3304 -0.9397
vn -0.1664 -0.6209 -0.7660
vn -0.2241 -0.8365 -0.5000
vn -0.2549 -0.9513 -0.1736
vn -0.2549 -0.9513 0.1736
vn -0.2241 -0.8365 0.5000
vn -0.1664 -0.6209 0.7660
vn -0.0885 -0.3304 0.9397
vn -0.0000 -0.0000 1.0000
vn 0.0885 0.3304 0.9397
vn 0.1664 0.6209 0.7660
vn 0.9570 -0.2898 -0.0117
vn 0.9585 -0.2841 -0.0221
vn 0.9609 -0.2752 -0.0297
vn 0.9638 -0.2644 -0.0338
vn 0.9669 -0.2529 -0.0338
vn 0.9698 -0.2421 -0.0297
vn 0.9722 -0.2333 -0.0221
vn 0.9737 -0.2275 -0.0117
vn 0.9742 -0.2255 -0.0000
vn 0.9737 -0.2275 0.0117
vn 0.9722 -0.2333 0.0221
vn 0.9698 -0.2421 0.0297
vn 0.9669 -0.2529 0.0338
vn 0.9638 -0.2644 0.0338
vn 0.9609 -0.2752 0.0297
vn 0.9585 -0.2841 0.0221
vn 0.9570 -0.2898 0.0117
vn 0.9565 -0.2918 -0.0000
vn -0.9737 0.2275 -0.0117
vn -0.9742 0.2255 0.0000
vn -0.9737 0.2275 0.0117
vn -0.9722 0.2333 0.0221
vn -0.9698 0.2421 0.0297
vn -0.9669 0.2529 0.0338
vn -0.9638 0.2644 0.0338
vn -0.9609 0.2752 0.0297
vn -0.9585 0.2841 0.0221
vn -0.9570 0.2898 0.0117
vn -0.9565 0.2918 0.0000
vn -0.9570 0.2898 -0.0117
vn -0.9585 0.2841 -0.0221
vn -0.9609 0.2752 -0.0297
vn -0.9638 0.2644 -0.0338
vn -0.9669 0.2529 -0.0338
vn -0.9698 0.2421 -0.0297
vn -0.9722 0.2333 -0.0221
# 54 vertex normals

vt 0.0283 0.4649 0.5000
vt 0.0815 0.4649 0.5009
vt 0.0815 0.9468 0.5009
vt 0.0283 0.9468 0.5000
vt 0.1343 0.4649 0.5032
vt 0.1343 0.9468 0.5032
vt 0.1865 0.4649 0.5058
vt 0.1865 0.9468 0.5058
vt 0.2383 0.4649 0.5075
vt 0.2383 0.9468 0.5075
vt 0.2900 0.4649 0.5075
vt 0.2900 0.9468 0.5075
vt 0.3418 0.4649 0.5058
vt 0.3418 0.9468 0.5058
vt 0.3940 0.4649 0.5032
vt 0.3940 0.9468 0.5032
vt 0.4468 0.4649 0.5009
vt 0.4468 0.9468 0.5009
vt 0.5000 0.4649 0.5000
vt 0.5000 0.9468 0.5000
vt 0.5532 0.4649 0.5009
vt 0.5532 0.9468 0.5009
vt 0.6060 0.4649 0.5032
vt 0.6060 0.9468 0.5032
vt 0.6582 0.4649 0.5058
vt 0.6582 0.9468 0.5058
vt 0.7100 0.4649 0.5075
vt 0.7100 0.9468 0.5075
vt 0.7617 0.4649 0.5075
vt 0.7617 0.9468 0.5075
vt 0.8135 0.4649 0.5058
vt 0.8135 0.9468 0.5058
vt 0.8657 0.4649 0.5032
vt 0.8657 0.9468 0.5032
vt 0.9185 0.4649 0.5009
vt 0.9185 0.9468 0.5009
vt 0.9717 0.4649 0.5000
vt 0.9717 0.9468 0.5000
vt 0.9449 0.3063 0.0000
vt 0.9578 0.2317 0.0000
vt 0.7430 0.2317 0.0000
vt 0.9449 0.1571 0.0000
vt 0.9076 0.0915 0.0000
vt 0.8504 0.0428 0.0000
vt 0.7803 0.0168 0.0000
vt 0.7057 0.0168 0.0000
vt 0.6355 0.0428 0.0000
vt 0.5784 0.0915 0.0000
vt 0.5411 0.1571 0.0000
vt 0.5281 0.2317 0.0000
vt 0.5411 0.3063 0.0000
vt 0.5784 0.3720 0.0000
vt 0.6355 0.4207 0.0000
vt 0.7057 0.4466 0.0000
vt 0.7803 0.4466 0.0000
vt 0.8504 0.4207 0.0000
vt 0.9076 0.3720 0.0000
vt 0.4861 0.2295 0.0000
vt 0.4729 0.3057 0.0000
vt 0.2666 0.2295 0.0000
vt 0.4348 0.3728 0.0000
vt 0.3764 0.4225 0.0000
vt 0.3047 0.4490 0.0000
vt 0.2285 0.4490 0.0000
vt 0.1568 0.4225 0.0000
vt 0.0984 0.3728 0.0000
vt 0.0603 0.3057 0.0000
vt 0.0471 0.2295 0.0000
vt 0.0603 0.1532 0.0000
vt 0.0984 0.0862 0.0000
vt 0.1568 0.0364 0.0000
vt 0.2285 0.0099 0.0000
vt 0.3047 0.0099 0.0000
vt 0.3764 0.0364 0.0000
vt 0.4348 0.0862 0.0000
vt 0.4729 0.1532 0.0000
# 76 texture coords

g Bochka_low02
s 8
f 77/153/109 78/154/110 79/155/110 80/156/109 
f 78/154/110 81/157/111 82/158/111 79/155/110 
f 81/157/111 83/159/112 84/160/112 82/158/111 
f 83/159/112 85/161/113 86/162/113 84/160/112 
f 85/161/113 87/163/114 88/164/114 86/162/113 
f 87/163/114 89/165/115 90/166/115 88/164/114 
f 89/165/115 91/167/116 92/168/116 90/166/115 
f 91/167/116 93/169/117 94/170/117 92/168/116 
f 93/169/117 95/171/118 96/172/118 94/170/117 
f 95/171/118 97/173/119 98/174/119 96/172/118 
f 97/173/119 99/175/120 100/176/120 98/174/119 
f 99/175/120 101/177/121 102/178/121 100/176/120 
f 101/177/121 103/179/122 104/180/122 102/178/121 
f 103/179/122 105/181/123 106/182/123 104/180/122 
f 105/181/123 107/183/124 108/184/124 106/182/123 
f 107/183/124 109/185/125 110/186/125 108/184/124 
f 109/185/125 111/187/126 112/188/126 110/186/125 
f 111/187/126 77/189/109 80/190/109 112/188/126 
s off
f 78/191/127 77/192/127 113/193/127 
f 77/192/128 111/194/128 113/193/128 
f 111/194/129 109/195/129 113/193/129 
f 109/195/130 107/196/130 113/193/130 
f 107/196/131 105/197/131 113/193/131 
f 105/197/132 103/198/132 113/193/132 
f 103/198/133 101/199/133 113/193/133 
f 101/199/134 99/200/134 113/193/134 
f 99/200/135 97/201/135 113/193/135 
f 97/201/136 95/202/136 113/193/136 
f 95/202/137 93/203/137 113/193/137 
f 93/203/138 91/204/138 113/193/138 
f 91/204/139 89/205/139 113/193/139 
f 89/205/140 87/206/140 113/193/140 
f 87/206/141 85/207/141 113/193/141 
f 85/207/142 83/208/142 113/193/142 
f 83/208/143 81/209/143 113/193/143 
f 81/209/144 78/191/144 113/193/144 
f 80/210/145 79/211/145 114/212/145 
f 79/211/146 82/213/146 114/212/146 
f 82/213/147 84/214/147 114/212/147 
f 84/214/148 86/215/148 114/212/148 
f 86/215/149 88/216/149 114/212/149 
f 88/216/150 90/217/150 114/212/150 
f 90/217/151 92/218/151 114/212/151 
f 92/218/152 94/219/152 114/212/152 
f 94/219/153 96/220/153 114/212/153 
f 96/220/154 98/221/154 114/212/154 
f 98/221/155 100/222/155 114/212/155 
f 100/222/156 102/223/156 114/212/156 
f 102/223/157 104/224/157 114/212/157 
f 104/224/158 106/225/158 114/212/158 
f 106/225/159 108/226/159 114/212/159 
f 108/226/160 110/227/160 114/212/160 
f 110/227/161 112/228/161 114/212/161 
f 112/228/162 80/210/162 114/212/162 
# 18 polygons - 36 triangles

